<svg viewBox="0 0 512 512" xmlns="http://www.w3.org/2000/svg">
 <style>
  #logo {
    stroke-width:10px;
    stroke:#000;
    fill:#000;
    white-space:pre;
  }
 </style>
 <path id="logo" d="m25 139.33h173.33l3.3333 69.333h-6q-12.333-36-28.667-49-16-13-48-13h-9.3333v108.33h15q16 0 26.667-11.667 10.667-11.667 14.667-32h5v98.667h-5.6667q-5.3333-25-15-35.667-9.3333-10.667-25.667-10.667h-15v101.67h41.333v7.3333h-126v-7.3333h19.667v-218.67h-19.667zm373 0h89v6.3333h-18.333v220.67h18.333v6.3333h-101.67v-6.3333h18.333v-208.33h-1.3333l-50 214.67h-41.667l-58.667-215.67h-1.3333v209.33h18.333v6.3333h-45.333v-6.3333h18.333v-220.67h-18.333v-6.3333h90l44.333 171.67z" aria-label="FM"/>
</svg>
